. 
 
http://www.torrentday.com   -    Your Key To The Scene.

Now TvTeam with [No-RAR] Releases.

(((((((((((((= Enjoy No RAR releases =))))))))))))))))))))

...................................NFO:....................................


The New Daughter DVDRiP XViD - IMAGiNE


Ripper ...........: IMAGiNE                                        IMDB Rating.......:6.0/10                             
Video Codec.......: XVID                                         Release Date......:02/05/10
Audio Codec.......:MP3                                           Theatre Date......:18/12/09
Audio Bitrate.....:128                                              Runtime.......:1h 47mn
Subtitles.........:NIL                                                 Language..........:ENGLISH
Resolution...... 672 x 288                                      IMDb URL..........:http://www.imdb.com/title/tt0951335/


[color=yellow]DETAILS:[/color]

Video
ID                               : 0
Format                           : MPEG-4 Visual
Format profile                   : Simple@L3
Format settings, BVOP            : No
Format settings, QPel            : No
Format settings, GMC             : No warppoints
Format settings, Matrix          : Default (H.263)
Codec ID                         : XVID
Codec ID/Hint                    : XviD
Duration                         : 1h 47mn
Bit rate                         : 833 Kbps
Width                            : 672 pixels
Height                           : 288 pixels
Display aspect ratio             : 2.35
Frame rate                       : 23.976 fps
Resolution                       : 24 bits
Colorimetry                      : 4:2:0
Scan type                        : Progressive
Bits/(Pixel*Frame)               : 0.179
Stream size                      : 643 MiB (86%)
Writing library                  : XviD 1.2.0.dev47 (UTC 2006-11-01)

Audio
ID                               : 1
Format                           : MPEG Audio
Format version                   : Version 1
Format profile                   : Layer 3
Codec ID                         : 55
Codec ID/Hint                    : MP3
Duration                         : 1h 47mn
Bit rate mode                    : Constant
Bit rate                         : 128 Kbps
Channel(s)                       : 2 channels
Sampling rate                    : 48.0 KHz
Resolution                       : 16 bits
Stream size                      : 98.8 MiB (13%)
Alignment                        : Aligned on interleaves
Interleave, duration             : 42 ms (1.00 video frame)
Interleave, preload duration     : 504 ms
Writing library                  : LAME3.97 
Encoding settings                : -m j -V 4 -q 2 -lowpass 17 -b 128


[color=yellow]NOTES:[/color]

IMAGiNE bringing you another release.....The New Daughter

Here we go with this dvdrip...got to be honest and say we was given this so thanks to a special friend ;-)
Checked around and couldn't see it out anywhere so we've just packed it up and what not and released it 
to share with everyone....

Enjoy :)